HIERARCHY
ROOT Hips
{
	OFFSET 0.00000 0.00000 0.00000
	CHANNELS 6 Xposition Yposition Zposition Zrotation Yrotation Xrotation 
	JOINT LHipJoint
	{
		OFFSET 0 0 0
		CHANNELS 3 Zrotation Yrotation Xrotation
		JOINT LeftUpLeg
		{
			OFFSET 1.36306 -1.79463 0.83929
			CHANNELS 3 Zrotation Yrotation Xrotation
			JOINT LeftLeg
			{
				OFFSET 2.44811 -6.72613 0.00000
				CHANNELS 3 Zrotation Yrotation Xrotation
				JOINT LeftFoot
				{
					OFFSET 2.56220 -7.03959 0.00000
					CHANNELS 3 Zrotation Yrotation Xrotation
					JOINT LeftToeBase
					{
						OFFSET 0.15764 -0.43311 2.32255
						CHANNELS 3 Zrotation Yrotation Xrotation
						End Site
						{
							OFFSET 0.00000 -0.00000 1.18966
						}
					}
				}
			}
		}
	}
	JOINT RHipJoint
	{
		OFFSET 0 0 0
		CHANNELS 3 Zrotation Yrotation Xrotation
		JOINT RightUpLeg
		{
			OFFSET -1.30552 -1.79463 0.83929
			CHANNELS 3 Zrotation Yrotation Xrotation
			JOINT RightLeg
			{
				OFFSET -2.54253 -6.98555 0.00000
				CHANNELS 3 Zrotation Yrotation Xrotation
				JOINT RightFoot
				{
					OFFSET -2.56826 -7.05623 0.00000
					CHANNELS 3 Zrotation Yrotation Xrotation
					JOINT RightToeBase
					{
						OFFSET -0.16473 -0.45259 2.36315
						CHANNELS 3 Zrotation Yrotation Xrotation
						End Site
						{
							OFFSET -0.00000 -0.00000 1.21082
						}
					}
				}
			}
		}
	}
	JOINT LowerBack
	{
		OFFSET 0 0 0
		CHANNELS 3 Zrotation Yrotation Xrotation
		JOINT Spine
		{
			OFFSET 0.02827 2.03559 -0.19338
			CHANNELS 3 Zrotation Yrotation Xrotation
			JOINT Spine1
			{
				OFFSET 0.05672 2.04885 -0.04275
				CHANNELS 3 Zrotation Yrotation Xrotation
				JOINT Neck
				{
					OFFSET 0 0 0
					CHANNELS 3 Zrotation Yrotation Xrotation
					JOINT Neck1
					{
						OFFSET -0.05417 1.74624 0.17202
						CHANNELS 3 Zrotation Yrotation Xrotation
						JOINT Head
						{
							OFFSET 0.10407 1.76136 -0.12397
							CHANNELS 3 Zrotation Yrotation Xrotation
							End Site
							{
								OFFSET 0.03720 1.77044 -0.06241
							}
						}
					}
				}
				JOINT LeftShoulder
				{
					OFFSET 0 0 0
					CHANNELS 3 Zrotation Yrotation Xrotation
					JOINT LeftArm
					{
						OFFSET 3.36241 1.20089 -0.31121
						CHANNELS 3 Zrotation Yrotation Xrotation
						JOINT LeftForeArm
						{
							OFFSET 4.98300 -0.00000 -0.00000
							CHANNELS 3 Zrotation Yrotation Xrotation
							JOINT LeftHand
							{
								OFFSET 3.48356 -0.00000 -0.00000
								CHANNELS 3 Zrotation Yrotation Xrotation
								JOINT LeftFingerBase
								{
									OFFSET 0 0 0
									CHANNELS 3 Zrotation Yrotation Xrotation
									JOINT LeftHandIndex1
									{
										OFFSET 0.71526 -0.00000 -0.00000
										CHANNELS 3 Zrotation Yrotation Xrotation
										End Site
										{
											OFFSET 0.57666 -0.00000 -0.00000
										}
									}
								}
								JOINT LThumb
								{
									OFFSET 0 0 0
									CHANNELS 3 Zrotation Yrotation Xrotation
									End Site
									{
										OFFSET 0.58547 -0.00000 0.58547
									}
								}
							}
						}
					}
				}
				JOINT RightShoulder
				{
					OFFSET 0 0 0
					CHANNELS 3 Zrotation Yrotation Xrotation
					JOINT RightArm
					{
						OFFSET -3.13660 1.37405 -0.40465
						CHANNELS 3 Zrotation Yrotation Xrotation
						JOINT RightForeArm
						{
							OFFSET -5.24190 -0.00000 -0.00000
							CHANNELS 3 Zrotation Yrotation Xrotation
							JOINT RightHand
							{
								OFFSET -3.44417 -0.00000 -0.00000
								CHANNELS 3 Zrotation Yrotation Xrotation
								JOINT RightFingerBase
								{
									OFFSET 0 0 0
									CHANNELS 3 Zrotation Yrotation Xrotation
									JOINT RightHandIndex1
									{
										OFFSET -0.62253 -0.00000 -0.00000
										CHANNELS 3 Zrotation Yrotation Xrotation
										End Site
										{
											OFFSET -0.50190 -0.00000 -0.00000
										}
									}
								}
								JOINT RThumb
								{
									OFFSET 0 0 0
									CHANNELS 3 Zrotation Yrotation Xrotation
									End Site
									{
										OFFSET -0.50956 -0.00000 0.50956
									}
								}
							}
						}
					}
				}
			}
		}
	}
}
MOTION
Frames: 6
Frame Time: .0083333
-24.2334 17.5803 3.4453 -185.8600 -15.6873 540.8890 0.0000 0.0000 0.0000 -24.8834 8.3347 -3.7615 0.5941 4.9347 13.7224 -0.0985 -15.4232 -9.7350 0.0548 -1.5112 -4.1565 0.0000 0.0000 0.0000 9.7663 18.1946 -44.3986 -21.1766 -19.9668 93.4419 0.6383 21.5804 -9.7177 -0.0005 -0.1431 0.3933 -6.4364 -4.2265 15.3904 0.9454 -6.9655 3.2229 5.8908 -3.5441 -4.2683 -10.1577 -12.4677 -2.6558 14.1364 -17.5486 14.0720 4.7285 -7.9602 6.8939 0.0000 -0.0000 0.0000 -84.4697 3.9577 10.3964 24.9169 -36.1190 -8.2409 -0.0000 0.0000 -1.4770 19.8431 -7.7009 -2.7685 -7.1250 0.0000 -0.0000 -5.0762 21.8113 2.8376 0.0000 -0.0000 0.0000 38.7833 8.8370 -30.2062 -108.6879 58.6384 -76.1102 0.0000 -0.0000 -22.6223 -5.0951 -6.1638 0.5485 7.1250 -0.0000 -0.0000 17.9409 -35.6539 4.2950
-24.2687 17.5949 3.3694 -186.0690 -15.7187 541.0540 0.0000 0.0000 0.0000 -25.1735 8.2599 -3.1665 0.5443 4.7268 13.1309 -0.0813 -15.1598 -9.7283 0.0423 -1.3280 -3.6517 0.0000 0.0000 0.0000 9.4562 17.7623 -45.4038 -20.7881 -19.9851 92.3049 0.8101 22.2744 -8.7779 -0.0139 -0.7608 2.0909 -6.8637 -4.4803 15.3565 1.0061 -7.3312 2.7854 6.2735 -3.6710 -4.6012 -10.4161 -12.2441 -1.1064 14.1394 -17.2306 13.8121 4.9087 -7.8856 6.5232 -0.0000 0.0000 0.0000 -84.5501 4.5304 11.5408 25.4052 -36.6152 -8.5304 -0.0000 0.0000 -1.6824 19.5626 -6.3402 -2.2472 -7.1250 0.0000 -0.0000 -5.2919 23.2612 2.7833 -0.0000 0.0000 0.0000 38.5750 8.4581 -29.4324 -108.6203 58.6485 -76.0525 0.0000 -0.0000 -22.7014 -5.2586 -6.1279 0.5629 7.1250 -0.0000 -0.0000 17.8013 -35.6289 4.2700
-24.3030 17.6149 3.2923 -186.2860 -15.4553 541.0590 0.0000 0.0000 0.0000 -25.4768 8.0863 -2.7250 0.5502 4.7517 13.2016 -0.0025 -14.6786 -10.2781 0.0428 -1.3345 -3.6698 0.0000 0.0000 0.0000 9.3151 17.5154 -46.1085 -20.3380 -19.9973 90.9883 0.9372 22.4815 -7.7138 -0.0424 -1.3287 3.6538 -6.7513 -4.1769 14.3211 0.7618 -6.9886 4.5422 5.6643 -3.7462 -2.2793 -8.8630 -12.7963 -4.8153 14.2537 -18.0662 13.4721 4.3736 -8.0934 7.0376 -0.0000 0.0000 0.0000 -83.6950 0.3904 12.8767 24.9888 -36.1926 -8.2833 -0.0000 0.0000 -1.1087 19.1328 -5.9470 -2.0586 -7.1250 0.0000 -0.0000 -5.6156 23.6931 2.8991 -0.0000 0.0000 0.0000 38.6439 10.0378 -32.2717 -108.2929 58.6971 -75.7728 0.0000 -0.0000 -22.4631 -5.2483 -5.9082 0.5417 7.1250 -0.0000 -0.0000 17.7597 -35.4184 4.3547
-24.3110 17.6177 3.1655 -185.8680 -17.2734 540.9120 0.0000 0.0000 0.0000 -24.5403 8.2786 -2.3673 0.5688 4.8302 13.4248 -0.2041 -16.6133 -9.5057 0.0193 -0.8978 -2.4676 0.0000 0.0000 0.0000 10.4589 15.1268 -46.2535 -19.8271 -19.9993 89.4944 0.8239 21.8385 -8.1208 -0.0326 -1.1647 3.2020 -6.9374 -5.0991 14.2648 1.2643 -8.1433 3.8445 6.4792 -4.2467 -2.7159 -9.9724 -12.4797 -2.6916 14.3097 -17.5834 13.5601 4.7517 -7.9904 6.7409 -0.0000 0.0000 0.0000 -84.1114 1.2475 12.5304 24.2405 -35.4176 -7.8455 -0.0000 -0.0000 0.4677 18.2844 -9.3818 -3.0831 -7.1250 0.0000 -0.0000 -6.1966 20.1367 3.7061 -0.0000 0.0000 0.0000 38.1854 9.1511 -30.9412 -108.3875 58.6831 -75.8537 0.0000 -0.0000 -22.9326 -4.9379 -5.8536 0.5048 7.1250 -0.0000 -0.0000 17.9962 -35.3489 4.4498
-24.3634 17.5566 3.1162 -185.5460 -15.5428 540.8380 0.0000 0.0000 0.0000 -24.5199 8.8391 -2.5573 0.6060 4.9828 13.8596 -0.0360 -15.5579 -10.5384 0.0132 -0.7409 -2.0360 0.0000 0.0000 0.0000 10.9706 15.8529 -47.0916 -19.3308 -19.9893 88.0431 0.8420 21.4965 -7.5042 -0.0224 -0.9654 2.6536 -6.5293 -4.6529 15.2060 1.4286 -7.5368 3.4575 6.4984 -3.8741 -3.7584 -10.1293 -12.5887 -3.1716 14.1089 -17.7136 13.9075 4.6602 -8.0413 6.9479 -0.0000 0.0000 0.0000 -84.2645 1.2939 14.3161 24.6088 -35.8014 -8.0599 -0.0000 0.0000 -1.1885 18.4662 -8.4555 -2.8111 -7.1250 0.0000 -0.0000 -6.0705 21.0936 3.4983 -0.0000 0.0000 0.0000 37.7706 8.8049 -31.0202 -108.2194 58.7078 -75.7100 0.0000 -0.0000 -23.2578 -4.2926 -5.7641 0.4319 7.1250 -0.0000 -0.0000 18.4918 -35.2275 4.6410
-24.3993 17.5319 3.0314 -185.3320 -14.8358 540.8170 0.0000 0.0000 0.0000 -24.3636 8.8551 -2.7747 0.6969 5.3363 14.8703 0.1067 -15.1101 -11.7494 0.0175 -0.8544 -2.3482 0.0000 0.0000 0.0000 11.6506 15.6375 -47.4012 -18.7306 -19.9613 86.2863 0.8011 21.1093 -7.4775 -0.0153 -0.7994 2.1970 -6.4327 -4.4990 14.0698 1.4497 -7.3209 4.4023 6.2324 -3.9117 -2.1897 -9.7233 -12.7423 -4.0213 14.5635 -17.9663 13.0936 4.6611 -8.1300 6.8764 0.0000 -0.0000 0.0000 -83.8492 -0.5111 15.4816 24.6117 -35.8045 -8.0617 -0.0000 0.0000 -1.5310 18.5768 -10.6028 -3.5386 -7.1250 0.0000 -0.0000 -5.9914 18.8423 3.7558 0.0000 -0.0000 0.0000 37.6821 9.6765 -32.3340 -108.0049 58.7389 -75.5267 0.0000 -0.0000 -23.5379 -3.7348 -5.8161 0.3790 7.1250 -0.0000 -0.0000 18.9488 -35.2455 4.7579
